# xmcd CD database file
#
# Track frame offsets:
#	150
#	3290
#	22381
#	44738
#	64421
#	89218
#	108361
#	128593
#	147657
#	169670
#
# Disc length: 2496 seconds
#
# Revision: 1
# Processed by: cddbd v1.4PL0 Copyright (c) Steve Scherf et al.
# Submitted via: Feurio! 1.66 - http://www.feurio.com
#
DISCID=9609be0a
DTITLE=Venus  - Volume II
DYEAR=1900
DGENRE=Aficana
TTITLE0=Intro
TTITLE1=Meche, meche and dansa. dansa
TTITLE2=Nada o ninguem
TTITLE3=Sima es amor
TTITLE4=Nha Rubera
TTITLE5=Intuição
TTITLE6=Coração dividido
TTITLE7=Nu tem ki intendi
TTITLE8=Bu olhar sensual
TTITLE9=Sem ti
EXTD=ProduMédia Sanumbila - Beto Bumbu
EXTT0=
EXTT1=
EXTT2=
EXTT3=
EXTT4=
EXTT5=
EXTT6=
EXTT7=
EXTT8=
EXTT9=
PLAYORDER=
